# xmcd CD database file
#
# Track frame offsets:
#	150
#	9940
#	22963
#	30465
#	40342
#	50581
#	62856
#	75474
#	86065
#	97461
#	110728
#	122871
#	132013
#	146363
#	156890
#	164098
#	175968
#	188623
#	194974
#	207170
#	218379
#	228914
#	243687
#	255088
#
# Disc length: 3602 seconds
#
# Revision: 0
# Processed by: cddbd v1.5.1PL0 Copyright (c) Steve Scherf et al.
# Submitted via: CDex 1.51
#
DISCID=4e0e1018
DTITLE=Peggy Lee - The Lady Is A Tramp
DYEAR=1900
DGENRE=Jazz
TTITLE0=Let There Be Love
TTITLE1=He's Just My Kind
TTITLE2=What Is This Thing Called Love
TTITLE3=The Lady Is A Tramp
TTITLE4=These Foolish Things
TTITLE5=I've Got A Right To Sing The Blues
TTITLE6=Oh, What A Beautiful Morning
TTITLE7=Just One More Chance
TTITLE8=I'll Dance At Your Wedding
TTITLE9=Love, Your Magic Spell Is Everywhere
TTITLE10=Linger In My Arms A Little Longer Baby
TTITLE11=Love Is Just Around The Corner
TTITLE12=September In The Rain
TTITLE13=Nice Work If You Can Get It
TTITLE14=If I Could Be With You One Hour Tonight
TTITLE15=That Old Gang Of Mine
TTITLE16=All Of Me
TTITLE17=A Guy Is A Guy
TTITLE18=The Secretary Song
TTITLE19=Wish You Were Here
TTITLE20=Let's Do It (Let's Fall In Love)
TTITLE21=How Long Has This Been Going On
TTITLE22=Manana (Is Soon Enough For Me)
TTITLE23=We'll Meet Again
EXTD=
EXTT0=
EXTT1=
EXTT2=
EXTT3=
EXTT4=
EXTT5=
EXTT6=
EXTT7=
EXTT8=
EXTT9=
EXTT10=
EXTT11=
EXTT12=
EXTT13=
EXTT14=
EXTT15=
EXTT16=
EXTT17=
EXTT18=
EXTT19=
EXTT20=
EXTT21=
EXTT22=
EXTT23=
PLAYORDER=
